<svg width="513" height="513" viewBox="0 0 513 513" fill="none" xmlns="http://www.w3.org/2000/svg">
<path d="M394.517 198.311C382.129 165.42 364.065 134.958 341.147 108.311C301.487 62.401 249.337 32.751 208.287 32.751C205.846 32.7528 203.438 33.3131 201.247 34.3889C199.056 35.4647 197.14 37.0275 195.646 38.9577C194.152 40.888 193.12 43.1344 192.628 45.5252C192.135 47.916 192.197 50.3876 192.807 52.751C206.677 105.751 177.927 149.821 147.497 196.471C122.287 235.111 96.2871 275.021 96.2871 320.751C96.2871 408.971 168.067 480.751 256.287 480.751C344.507 480.751 416.287 408.971 416.287 320.751C416.287 277.451 408.967 236.261 394.517 198.311ZM288.617 419.441C278.287 430.441 265.337 432.751 256.287 432.751C247.237 432.751 234.287 430.441 223.957 419.441C213.627 408.441 208.287 390.991 208.287 368.751C208.287 343.611 217.107 324.471 225.627 305.971C230.577 295.231 235.627 284.301 238.627 272.601C238.946 271.328 239.572 270.153 240.452 269.18C241.331 268.207 242.437 267.464 243.671 267.019C244.905 266.573 246.229 266.438 247.528 266.625C248.826 266.812 250.059 267.315 251.117 268.091C260.263 275.167 268.396 283.465 275.287 292.751C293.457 316.751 304.287 345.171 304.287 368.751C304.287 390.991 298.867 408.521 288.617 419.441V419.441Z" fill="#FF0000"/>
</svg>
