<svg width="24" height="18" viewBox="0 0 24 18" fill="none" xmlns="http://www.w3.org/2000/svg">
<path d="M23.1429 0H0.857143C0.629812 0 0.411797 0.0862011 0.251051 0.23964C0.0903059 0.393079 0 0.601185 0 0.818182V17.1818C0 17.3988 0.0903059 17.6069 0.251051 17.7604C0.411797 17.9138 0.629812 18 0.857143 18H23.1429C23.3702 18 23.5882 17.9138 23.749 17.7604C23.9097 17.6069 24 17.3988 24 17.1818V0.818182C24 0.601185 23.9097 0.393079 23.749 0.23964C23.5882 0.0862011 23.3702 0 23.1429 0ZM12.5261 10.464C12.3756 10.5757 12.1906 10.6363 12 10.6363C11.8094 10.6363 11.6244 10.5757 11.4739 10.464L3.08304 4.2346L4.13518 2.9429L12 8.78165L19.8648 2.9429L20.917 4.2346L12.5261 10.464Z" fill="#D60105"/>
</svg>
