<svg width="18" height="25" viewBox="0 0 18 25" fill="none" xmlns="http://www.w3.org/2000/svg">
<path d="M15.1364 7.72183H9.81818V15.4898C9.81818 15.7171 9.73198 15.9352 9.57854 16.0959C9.4251 16.2567 9.217 16.347 9 16.347C8.783 16.347 8.5749 16.2567 8.42146 16.0959C8.26802 15.9352 8.18182 15.7171 8.18182 15.4898V7.72183H2.86364C2.1044 7.72268 1.3765 8.03903 0.839637 8.60146C0.302777 9.1639 0.000812161 9.92648 0 10.7219V21.0078C0.000812161 21.8032 0.302777 22.5657 0.839637 23.1282C1.3765 23.6906 2.1044 24.007 2.86364 24.0078H15.1364C15.8956 24.007 16.6235 23.6906 17.1604 23.1282C17.6972 22.5657 17.9992 21.8032 18 21.0078V10.7219C17.9992 9.92648 17.6972 9.1639 17.1604 8.60146C16.6235 8.03903 15.8956 7.72268 15.1364 7.72183ZM9.81818 2.93407L12.5126 5.75626C12.6672 5.91022 12.8732 5.99479 13.0866 5.99193C13.2999 5.98906 13.5038 5.899 13.6546 5.74094C13.8055 5.58288 13.8915 5.36933 13.8942 5.14581C13.8969 4.9223 13.8162 4.70651 13.6693 4.54445L9.57835 0.258669C9.42493 0.0980427 9.2169 0.0078125 9 0.0078125C8.7831 0.0078125 8.57507 0.0980427 8.42165 0.258669L4.33074 4.54445C4.18378 4.70651 4.10306 4.9223 4.10579 5.14581C4.10852 5.36933 4.19449 5.58288 4.34536 5.74094C4.49624 5.899 4.70008 5.98906 4.91343 5.99193C5.12678 5.99479 5.33276 5.91022 5.48744 5.75626L8.18182 2.93407V7.72183H9.81818V2.93407Z" fill="white"/>
</svg>
