<svg width="18" height="18" viewBox="0 0 18 18" fill="none" xmlns="http://www.w3.org/2000/svg">
<path d="M9 0C4.02966 0 0 4.02966 0 9C0 13.9625 4.03788 18 9 18C13.9699 18 18 13.9699 18 9C18 4.03745 13.9625 0 9 0ZM13.6731 10.3846H8.48077C8.43486 10.3846 8.39086 10.3664 8.3584 10.3339C8.32591 10.3015 8.30769 10.2574 8.30769 10.2115V2.94231C8.30769 2.8964 8.32591 2.85238 8.3584 2.81993C8.39086 2.78746 8.43486 2.76923 8.48077 2.76923H9.51923C9.56514 2.76923 9.60914 2.78746 9.6416 2.81993C9.67409 2.85238 9.69231 2.8964 9.69231 2.94231V9H13.6731C13.719 9 13.763 9.01822 13.7954 9.05071C13.8279 9.08316 13.8462 9.12717 13.8462 9.17308V10.2115C13.8462 10.2574 13.8279 10.3015 13.7954 10.3339C13.763 10.3664 13.719 10.3846 13.6731 10.3846Z" fill="#D60105"/>
</svg>
